<svg xmlns="http://www.w3.org/2000/svg" width="800" height="600" viewBox="0 0 800 600">
  <defs>
    <marker id="arrowhead" markerWidth="10" markerHeight="7" refX="7" refY="3.5" orient="auto">
      <polygon points="0 0, 10 3.5, 0 7" fill="#666" />
    </marker>
  </defs>
  <rect width="100%" height="100%" fill="white" /><line x1="400" y1="70" x2="400" y2="90" stroke="#666" stroke-width="2" marker-end="url(#arrowhead)" /><rect x="380" y="70" width="40" height="20" fill="white" rx="5" /><text x="400" y="85" font-family="Arial" font-size="10" text-anchor="middle">HTTPS</text><line x1="400" y1="150" x2="400" y2="255" stroke="#666" stroke-width="2" marker-end="url(#arrowhead)" /><rect x="380" y="192.5" width="40" height="20" fill="white" rx="5" /><text x="400" y="207.5" font-family="Arial" font-size="10" text-anchor="middle">Query</text><line x1="400" y1="305" x2="400" y2="315" stroke="#666" stroke-width="2" marker-end="url(#arrowhead)" /><line x1="330" y1="340" x2="250" y2="340" stroke="#666" stroke-width="2" marker-end="url(#arrowhead)" /><rect x="270" y="330" width="40" height="20" fill="white" rx="5" /><text x="290" y="345" font-family="Arial" font-size="10" text-anchor="middle">Execute</text><line x1="180" y1="315" x2="620" y2="245" stroke="#666" stroke-width="2" marker-end="url(#arrowhead)" /><rect x="380" y="270" width="40" height="20" fill="white" rx="5" /><text x="400" y="285" font-family="Arial" font-size="10" text-anchor="middle">Generate</text><line x1="180" y1="315" x2="620" y2="305" stroke="#666" stroke-width="2" marker-end="url(#arrowhead)" /><rect x="380" y="300" width="40" height="20" fill="white" rx="5" /><text x="400" y="315" font-family="Arial" font-size="10" text-anchor="middle">Query</text><line x1="620" y1="245" x2="180" y2="315" stroke="#666" stroke-width="2" marker-end="url(#arrowhead)" /><rect x="380" y="270" width="40" height="20" fill="white" rx="5" /><text x="400" y="285" font-family="Arial" font-size="10" text-anchor="middle">Response</text><line x1="250" y1="340" x2="330" y2="340" stroke="#666" stroke-width="2" marker-end="url(#arrowhead)" /><line x1="400" y1="315" x2="400" y2="305" stroke="#666" stroke-width="2" marker-end="url(#arrowhead)" /><line x1="400" y1="255" x2="400" y2="150" stroke="#666" stroke-width="2" marker-end="url(#arrowhead)" /><rect x="380" y="192.5" width="40" height="20" fill="white" rx="5" /><text x="400" y="207.5" font-family="Arial" font-size="10" text-anchor="middle">Response</text><line x1="400" y1="90" x2="400" y2="70" stroke="#666" stroke-width="2" marker-end="url(#arrowhead)" /><rect x="380" y="70" width="40" height="20" fill="white" rx="5" /><text x="400" y="85" font-family="Arial" font-size="10" text-anchor="middle">Display</text><line x1="180" y1="245" x2="180" y2="255" stroke="#666" stroke-width="2" marker-end="url(#arrowhead)" /><line x1="180" y1="305" x2="180" y2="315" stroke="#666" stroke-width="2" marker-end="url(#arrowhead)" /><line x1="180" y1="305" x2="400" y2="315" stroke="#666" stroke-width="2" stroke-dasharray="5,5" marker-end="url(#arrowhead)" /><line x1="180" y1="245" x2="180" y2="415" stroke="#666" stroke-width="2" stroke-dasharray="2,2" marker-end="url(#arrowhead)" /><line x1="180" y1="245" x2="330" y2="415" stroke="#666" stroke-width="2" stroke-dasharray="2,2" marker-end="url(#arrowhead)" /><line x1="250" y1="220" x2="550" y2="220" stroke="#666" stroke-width="2" stroke-dasharray="2,2" marker-end="url(#arrowhead)" /><line x1="180" y1="245" x2="620" y2="255" stroke="#666" stroke-width="2" stroke-dasharray="2,2" marker-end="url(#arrowhead)" /><line x1="180" y1="245" x2="500" y2="415" stroke="#666" stroke-width="2" stroke-dasharray="2,2" marker-end="url(#arrowhead)" /><line x1="400" y1="150" x2="500" y2="415" stroke="#666" stroke-width="2" stroke-dasharray="2,2" marker-end="url(#arrowhead)" /><line x1="400" y1="150" x2="620" y2="415" stroke="#666" stroke-width="2" stroke-dasharray="2,2" marker-end="url(#arrowhead)" /><line x1="400" y1="245" x2="400" y2="255" stroke="#666" stroke-width="2" marker-end="url(#arrowhead)" /><line x1="400" y1="245" x2="180" y2="415" stroke="#666" stroke-width="2" stroke-dasharray="2,2" marker-end="url(#arrowhead)" /><line x1="400" y1="245" x2="330" y2="415" stroke="#666" stroke-width="2" stroke-dasharray="2,2" marker-end="url(#arrowhead)" /><line x1="400" y1="245" x2="620" y2="415" stroke="#666" stroke-width="2" stroke-dasharray="2,2" marker-end="url(#arrowhead)" /><circle cx="400" cy="50" r="20" fill="#505050" /><text x="400" y="55" font-family="Arial" font-size="12" fill="white" text-anchor="middle">User</text><rect x="320" y="90" width="160" height="60" 
              fill="#107C10" stroke="#fff" stroke-width="1" rx="5" /><text x="400" y="113" font-family="Arial" font-size="12" fill="white" text-anchor="middle">App Service</text><text x="400" y="127" font-family="Arial" font-size="12" fill="white" text-anchor="middle">(Easy Auth)</text><rect x="110" y="195" width="140" height="50" 
              fill="#0099BC" stroke="#fff" stroke-width="1" rx="5" /><text x="180" y="225" font-family="Arial" font-size="12" fill="white" text-anchor="middle">AI Foundry Hub</text><rect x="110" y="255" width="140" height="50" 
              fill="#0099BC" stroke="#fff" stroke-width="1" rx="5" /><text x="180" y="285" font-family="Arial" font-size="12" fill="white" text-anchor="middle">AI Foundry Project</text><rect x="110" y="315" width="140" height="50" 
              fill="#0099BC" stroke="#fff" stroke-width="1" rx="5" /><text x="180" y="345" font-family="Arial" font-size="12" fill="white" text-anchor="middle">Prompt Flow</text><rect x="330" y="195" width="140" height="50" 
              fill="#107C10" stroke="#fff" stroke-width="1" rx="5" /><text x="400" y="213" font-family="Arial" font-size="12" fill="white" text-anchor="middle">Azure ML</text><text x="400" y="227" font-family="Arial" font-size="12" fill="white" text-anchor="middle">Workspace</text><rect x="330" y="255" width="140" height="50" 
              fill="#107C10" stroke="#fff" stroke-width="1" rx="5" /><text x="400" y="273" font-family="Arial" font-size="12" fill="white" text-anchor="middle">Managed Online</text><text x="400" y="287" font-family="Arial" font-size="12" fill="white" text-anchor="middle">Endpoint</text><rect x="330" y="315" width="140" height="50" 
              fill="#107C10" stroke="#fff" stroke-width="1" rx="5" /><text x="400" y="345" font-family="Arial" font-size="12" fill="white" text-anchor="middle">Flow Deployment</text><rect x="550" y="195" width="140" height="50" 
              fill="#0099BC" stroke="#fff" stroke-width="1" rx="5" /><text x="620" y="213" font-family="Arial" font-size="12" fill="white" text-anchor="middle">Azure OpenAI</text><text x="620" y="227" font-family="Arial" font-size="12" fill="white" text-anchor="middle">Service</text><rect x="550" y="255" width="140" height="50" 
              fill="#0078D4" stroke="#fff" stroke-width="1" rx="5" /><text x="620" y="285" font-family="Arial" font-size="12" fill="white" text-anchor="middle">Azure AI Search</text><rect x="120" y="415" width="120" height="50" 
              fill="#0078D4" stroke="#fff" stroke-width="1" rx="5" /><text x="180" y="445" font-family="Arial" font-size="12" fill="white" text-anchor="middle">Azure Storage</text><rect x="260" y="415" width="140" height="50" 
              fill="#00BCF2" stroke="#fff" stroke-width="1" rx="5" /><text x="330" y="445" font-family="Arial" font-size="12" fill="white" text-anchor="middle">Container Registry</text><rect x="440" y="415" width="120" height="50" 
              fill="#D83B01" stroke="#fff" stroke-width="1" rx="5" /><text x="500" y="445" font-family="Arial" font-size="12" fill="white" text-anchor="middle">Key Vault</text><rect x="560" y="415" width="120" height="50" 
              fill="#6B2EB8" stroke="#fff" stroke-width="1" rx="5" /><text x="620" y="433" font-family="Arial" font-size="12" fill="white" text-anchor="middle">Application</text><text x="620" y="447" font-family="Arial" font-size="12" fill="white" text-anchor="middle">Insights</text></svg>
